<svg id="Layer_1" xmlns="http://www.w3.org/2000/svg" viewBox="0 0 507.2 246"><style>.st0{fill:#3c3c3b}</style><path class="st0" d="M408.9 101.2c.9 2.2 1.4 4.6 1.4 7.2l-.2 26.3c0 2.4-.5 4.7-1.5 6.9s-2.3 4.1-3.9 5.6c-1.7 1.5-3.6 2.8-5.8 3.7-2.2.9-4.5 1.4-6.9 1.4-2.9 0-5.4-.5-7.6-1.5-2.3-1-4.2-2.3-5.9-3.9-1.7-1.6-3-3.6-3.9-5.8-.9-2.2-1.3-4.6-1.2-7.2v-26.3c0-2.4.5-4.7 1.5-6.9s2.3-4.1 4-5.6c1.6-1.5 3.6-2.8 5.8-3.7 2.2-.9 4.6-1.4 7.2-1.4 2.6 0 5.1.5 7.3 1.5s4.2 2.3 5.9 3.9c1.6 1.7 2.9 3.6 3.8 5.8zm57.8-47.3V192c0 7.2-5.9 13.1-13.1 13.1H59.4c-7.2 0-13.1-5.9-13.1-13.1V53.9c0-7.2 5.9-13.1 13.1-13.1h394.2c7.2 0 13.1 5.9 13.1 13.1zM71.1 187.5c0-3.9-3.2-7.1-7.1-7.1-3.9 0-7.1 3.2-7.1 7.1 0 3.9 3.2 7.1 7.1 7.1 3.9 0 7.1-3.2 7.1-7.1zm0-129c0-3.9-3.2-7.1-7.1-7.1-3.9 0-7.1 3.2-7.1 7.1 0 3.9 3.2 7.1 7.1 7.1 3.9.1 7.1-3.1 7.1-7.1zm49 62.7l38.5-33.6c2.2-2.2 3.3-4.8 3.3-7.8s-1.1-5.6-3.3-7.8c-2.2-2.2-4.8-3.3-7.8-3.3s-5.7 1.1-8 3.3l-38.3 33.6V79.8c0-3-1.1-5.5-3.2-7.7s-4.8-3.3-8-3.3c-3.1 0-5.7 1.1-7.9 3.3-2.2 2.2-3.3 4.8-3.3 7.7v82.9c0 3.1 1.1 5.7 3.3 7.8 2.2 2.1 4.8 3.2 7.9 3.2 3.2 0 5.8-1.1 8-3.2 2.1-2.1 3.2-4.7 3.2-7.8v-25.8l38.3 33.9c2.3 2.1 5 3.1 8 3.1s5.6-1 7.8-3.1c2.2-2.3 3.3-5 3.3-8s-1.1-5.6-3.3-7.8l-38.5-33.8zm132.1-14.1c0-5.5-1.1-10.6-3.3-15.3-2.2-4.7-5.1-8.8-8.7-12.3-3.6-3.5-7.8-6.1-12.7-8.1-4.8-1.9-9.9-2.9-15.1-2.9-5.7 0-11 1-15.8 3.1-4.8 2.1-9 4.9-12.6 8.6-3.6 3.6-6.4 7.8-8.4 12.7-2 4.8-3.1 10-3.2 15.5V163c0 2.9 1.1 5.3 3.3 7.2 2.2 2 4.7 3 7.6 3 2.9 0 5.4-1.1 7.6-3.2 2.2-2.1 3.3-4.6 3.3-7.5v-18.8h36.7V163c0 3 1.1 5.4 3.2 7.3 2.1 1.9 4.7 2.9 7.7 2.9 3-.1 5.4-1.2 7.5-3.3 2-2.1 3-4.6 3-7.4v-55.4zm90 .5c0-5.5-1.1-10.6-3.3-15.3-2.2-4.7-5.1-8.8-8.7-12.3-3.6-3.5-7.8-6.1-12.7-8.1-4.8-1.9-9.9-2.9-15.1-2.9-5.7 0-11 1-15.8 3.1-4.8 2.1-9 4.9-12.6 8.6-3.6 3.6-6.4 7.8-8.4 12.7-2 4.8-3.1 10-3.2 15.5v54.6c0 2.9 1.1 5.3 3.3 7.2 2.2 2 4.7 3 7.6 3 2.8 0 5.4-1.1 7.6-3.2 2.2-2.1 3.3-4.6 3.3-7.5v-55c0-2.4.5-4.7 1.5-6.9s2.3-4.1 4-5.6c1.6-1.5 3.6-2.8 5.8-3.7 2.2-.9 4.5-1.4 6.9-1.4 2.6 0 5.1.5 7.3 1.5s4.2 2.3 5.9 3.9c1.7 1.6 3 3.6 4 5.8.9 2.2 1.4 4.6 1.4 7.2v54.6c0 3 1.1 5.4 3.2 7.3 2.1 1.9 4.7 2.9 7.7 2.9 3-.1 5.5-1.2 7.5-3.3 2-2.1 3-4.5 3-7.4v-55.3zm89.5-.5c0-5.5-1.1-10.6-3.3-15.3-2.2-4.7-5.1-8.8-8.7-12.3-3.6-3.5-7.8-6.1-12.7-8.1-4.8-1.9-9.9-2.9-15.1-2.9-5.9 0-11.3 1-16.1 3.1-4.8 2.1-9 4.9-12.6 8.6-3.6 3.6-6.4 7.8-8.4 12.7-2 4.8-3 10-3 15.5v26.8c0 5.5 1.1 10.6 3.3 15.3 2.2 4.7 5.1 8.8 8.7 12.3 3.6 3.5 7.8 6.1 12.7 8.1 4.8 1.9 10 2.9 15.5 2.9 5.7 0 11-1 15.8-3.1 4.8-2.1 9-4.9 12.6-8.6 3.6-3.6 6.4-7.8 8.4-12.7 2-4.8 3-10 3-15.5v-26.8zm24.6 80.4c0-3.9-3.2-7.1-7.1-7.1-3.9 0-7.1 3.2-7.1 7.1 0 3.9 3.2 7.1 7.1 7.1 3.9 0 7.1-3.2 7.1-7.1zm0-129c0-3.9-3.2-7.1-7.1-7.1-3.9 0-7.1 3.2-7.1 7.1 0 3.9 3.2 7.1 7.1 7.1 3.9.1 7.1-3.1 7.1-7.1zM225.4 95.4c-1.7-1.6-3.7-3-5.9-3.9-2.3-1-4.7-1.5-7.3-1.5-2.4 0-4.7.5-6.9 1.4-2.2.9-4.1 2.2-5.8 3.7-1.7 1.5-3 3.4-4 5.6-1 2.2-1.5 4.5-1.5 6.9v14.8h36.7v-14c0-2.5-.5-4.9-1.4-7.2-.8-2.2-2.2-4.1-3.9-5.8z" id="Kano__x2B__tagline"/></svg>